<svg width="2180" height="440" viewBox="0 0 2180 440" fill="none" xmlns="http://www.w3.org/2000/svg">
<mask id="mask0_667_57" style="mask-type:luminance" maskUnits="userSpaceOnUse" x="0" y="281" width="470" height="159">
<path d="M0 281.759H469.152V439.996H0V281.759Z" fill="white"/>
</mask>
<g mask="url(#mask0_667_57)">
<path d="M0 292.308C83.7988 275.166 171.946 279.73 253.526 305.432C335.107 331.133 409.95 377.92 468.795 439.996C342.906 356.135 182.755 324.629 32.9368 345.511L0 292.308Z" fill="#39827A"/>
</g>
<mask id="mask1_667_57" style="mask-type:luminance" maskUnits="userSpaceOnUse" x="122" y="0" width="492" height="282">
<path d="M122.382 0H613.6V281.759H122.382V0Z" fill="white"/>
</mask>
<g mask="url(#mask1_667_57)">
<path d="M612.773 262.821C589.993 256.29 563.838 252.985 534.009 254.917C581.125 117.312 394.335 93.1905 368 0.00439453C341.669 93.1905 154.879 117.312 201.995 254.917C172.161 252.985 146.011 256.29 123.231 262.821C161.748 264.485 200.076 270.497 237.221 280.817C175.163 180.554 323.356 112.066 368 71.5421C412.648 112.066 560.841 180.554 498.783 280.817C535.927 270.497 574.255 264.485 612.773 262.821Z" fill="#39827A"/>
</g>
<mask id="mask2_667_57" style="mask-type:luminance" maskUnits="userSpaceOnUse" x="266" y="365" width="124" height="75">
<path d="M266.954 365.412H389.199V439.996H266.954V365.412Z" fill="white"/>
</mask>
<g mask="url(#mask2_667_57)">
<path d="M356.377 365.465C323.937 386.801 293.918 411.816 267.209 439.996C305.163 414.712 346.233 394.195 389.195 378.43C378.395 373.792 367.45 369.474 356.377 365.465Z" fill="#39827A"/>
</g>
<mask id="mask3_667_57" style="mask-type:luminance" maskUnits="userSpaceOnUse" x="383" y="281" width="353" height="89">
<path d="M383.914 281.759H736V369.637H383.914V281.759Z" fill="white"/>
</mask>
<g mask="url(#mask3_667_57)">
<path d="M482.478 305.436C448.26 316.214 415.231 330.715 384.068 348.486C394.608 355.154 404.911 362.2 414.936 369.62C507.449 340.217 607.369 332.172 703.068 345.511L736 292.308C652.206 275.166 564.059 279.73 482.478 305.436Z" fill="#39827A"/>
</g>
<path d="M899.725 366.867L785.273 205.306V332.209C785.273 336.413 785.672 339.754 786.488 342.231C787.295 344.717 788.367 346.625 789.715 347.963C791.053 349.31 792.647 350.193 794.498 350.62C796.367 351.057 798.303 351.265 800.306 351.265H812.643V366.867H736V351.265H748.337C750.435 351.265 752.38 351.057 754.183 350.62C756.005 350.193 757.6 349.31 758.966 347.963C760.352 346.625 761.434 344.717 762.193 342.231C762.971 339.754 763.37 336.413 763.37 332.209V190.843C763.37 186.923 762.962 183.801 762.155 181.466C761.339 179.113 760.238 177.319 758.852 176.076C757.457 174.842 755.854 174.007 754.031 173.571C752.228 173.144 750.33 172.925 748.337 172.925H736V157.475H801.179L904.736 303.852V190.843C904.736 186.923 904.318 183.801 903.483 181.466C902.667 179.113 901.566 177.319 900.181 176.076C898.814 174.842 897.22 174.007 895.398 173.571C893.595 173.144 891.687 172.925 889.666 172.925H877.366V157.475H953.971V172.925H941.672C939.67 172.925 937.762 173.144 935.94 173.571C934.118 174.007 932.504 174.89 931.119 176.228C929.752 177.575 928.689 179.483 927.93 181.96C927.171 184.446 926.791 187.787 926.791 191.982V366.867H899.725Z" fill="#545454"/>
<path d="M1051.06 224.932C1042.83 224.932 1036.3 228.994 1031.47 237.117C1026.66 245.222 1024.03 257.104 1023.57 272.762H1074.25C1074.25 265.322 1073.81 258.641 1072.96 252.719C1072.1 246.797 1070.73 241.786 1068.86 237.687C1067.01 233.587 1064.63 230.436 1061.72 228.234C1058.81 226.033 1055.25 224.932 1051.06 224.932ZM1053.79 369.714C1041.36 369.714 1030.39 367.902 1020.88 364.286C1011.39 360.67 1003.43 355.422 997.038 348.532C990.661 341.652 985.84 333.225 982.575 323.25C979.33 313.286 977.716 301.897 977.716 289.086C977.716 275.344 979.33 263.272 982.575 252.871C985.84 242.451 990.566 233.758 996.773 226.792C1002.97 219.835 1010.57 214.606 1019.59 211.114C1028.62 207.622 1038.92 205.875 1050.49 205.875C1061.09 205.875 1070.63 207.384 1079.11 210.393C1087.61 213.411 1094.83 217.871 1100.75 223.793C1106.67 229.715 1111.2 237.07 1114.34 245.848C1117.5 254.636 1119.08 264.848 1119.08 276.483V291.515H1022.97C1023.27 301.366 1024.34 309.812 1026.19 316.873C1028.06 323.934 1030.64 329.77 1033.94 334.373C1037.22 338.957 1041.23 342.345 1045.97 344.546C1050.7 346.729 1056.11 347.811 1062.22 347.811C1067.28 347.811 1071.95 347.223 1076.26 346.027C1080.56 344.841 1084.44 343.17 1087.92 341.016C1091.41 338.871 1094.46 336.337 1097.1 333.424C1099.73 330.52 1101.91 327.388 1103.63 324.048C1108.87 326.914 1111.49 331.678 1111.49 338.359C1111.49 342.563 1110.33 346.549 1108.04 350.316C1105.76 354.094 1102.23 357.415 1097.44 360.3C1092.68 363.166 1086.7 365.444 1079.49 367.133C1072.28 368.851 1063.71 369.714 1053.79 369.714Z" fill="#545454"/>
<path d="M1302.38 287.681C1302.38 315.269 1295.9 335.844 1282.95 349.405C1270.01 362.948 1250.99 369.714 1225.89 369.714C1214.14 369.714 1203.59 368.025 1194.23 364.666C1184.89 361.278 1176.94 356.191 1170.39 349.405C1163.86 342.629 1158.85 334.088 1155.36 323.782C1151.87 313.456 1150.12 301.423 1150.12 287.681C1150.12 260.074 1156.58 239.537 1169.52 226.071C1182.47 212.613 1201.56 205.875 1226.76 205.875C1238.5 205.875 1249.03 207.546 1258.35 210.886C1267.66 214.227 1275.58 219.295 1282.11 226.071C1288.64 232.856 1293.65 241.388 1297.14 251.656C1300.64 261.906 1302.38 273.92 1302.38 287.681ZM1195.67 287.681C1195.67 298.082 1196.22 307.25 1197.31 315.165C1198.42 323.089 1200.19 329.732 1202.62 335.094C1205.05 340.437 1208.22 344.47 1212.15 347.204C1216.07 349.918 1220.84 351.265 1226.46 351.265C1232.1 351.265 1236.84 349.918 1240.7 347.204C1244.57 344.47 1247.72 340.437 1250.15 335.094C1252.6 329.732 1254.34 323.089 1255.39 315.165C1256.45 307.25 1256.98 298.082 1256.98 287.681C1256.98 277.185 1256.42 267.998 1255.31 260.121C1254.22 252.226 1252.46 245.658 1250.03 240.42C1247.61 235.162 1244.43 231.214 1240.51 228.576C1236.58 225.947 1231.81 224.628 1226.2 224.628C1220.55 224.628 1215.77 225.947 1211.85 228.576C1207.95 231.214 1204.79 235.162 1202.39 240.42C1200.01 245.658 1198.29 252.226 1197.23 260.121C1196.19 267.998 1195.67 277.185 1195.67 287.681Z" fill="#545454"/>
<path d="M1384.99 297.968L1376.52 323.174C1375.77 325.585 1374.98 328.375 1374.17 331.564C1373.35 334.752 1372.96 337.552 1372.96 339.953C1372.96 341.851 1373.34 343.521 1374.09 344.964C1374.85 346.387 1375.85 347.545 1377.09 348.456C1378.33 349.367 1379.73 350.07 1381.31 350.544C1382.9 351.028 1384.55 351.265 1386.28 351.265H1398.58V366.867H1322.24V351.265H1325.85C1328.4 351.265 1330.75 350.981 1332.91 350.392C1335.05 349.813 1337.05 348.741 1338.91 347.166C1340.77 345.6 1342.55 343.436 1344.22 340.674C1345.89 337.894 1347.58 334.316 1349.31 329.931L1412.89 157.475H1453.17L1514.44 330.197C1515.88 334.297 1517.38 337.713 1518.95 340.447C1520.55 343.161 1522.27 345.306 1524.12 346.9C1525.99 348.475 1527.97 349.595 1530.08 350.278C1532.17 350.943 1534.37 351.265 1536.64 351.265H1541.96V366.867H1445.12V351.265H1456.58C1458.03 351.265 1459.51 351.057 1461.03 350.62C1462.56 350.193 1463.93 349.519 1465.12 348.608C1466.31 347.697 1467.29 346.539 1468.05 345.116C1468.81 343.673 1469.19 341.956 1469.19 339.953C1469.19 337.552 1468.89 335.265 1468.31 333.082C1467.75 330.88 1467.18 328.973 1466.61 327.35L1456.32 297.968H1384.99ZM1434.95 231.954C1433.9 228.614 1432.83 225.112 1431.72 221.439C1430.63 217.748 1429.53 213.989 1428.42 210.165C1427.33 206.35 1426.27 202.554 1425.27 198.777C1424.28 195.009 1423.41 191.412 1422.65 187.996C1421.78 190.957 1420.79 194.212 1419.65 197.752C1418.51 201.273 1417.29 204.888 1416 208.609C1414.71 212.329 1413.42 216.049 1412.13 219.769C1410.84 223.489 1409.61 227.076 1408.45 230.512L1391.14 280.089H1450.43L1434.95 231.954Z" fill="#545454"/>
<path d="M1650.75 366.867H1552.81V351.265H1553.64C1556.99 351.265 1560.03 351.028 1562.79 350.544C1565.57 350.069 1567.97 349.092 1569.97 347.621C1571.99 346.131 1573.55 344.005 1574.64 341.244C1575.72 338.463 1576.27 334.781 1576.27 330.197V245.127C1576.27 240.828 1575.76 237.373 1574.75 234.763C1573.76 232.135 1572.33 230.113 1570.46 228.69C1568.61 227.247 1566.4 226.317 1563.82 225.881C1561.24 225.453 1558.32 225.235 1555.09 225.235H1554.21V209.595H1613.51L1619.39 232.524H1620.84C1622.73 228.12 1624.82 224.277 1627.1 220.984C1629.4 217.7 1632.15 214.967 1635.34 212.784C1638.54 210.582 1642.33 208.94 1646.69 207.849C1651.03 206.739 1656.22 206.179 1662.21 206.179C1673.77 206.179 1682.28 208.21 1687.72 212.253C1693.16 216.305 1695.88 222.198 1695.88 229.942C1695.88 238.93 1692.63 245.905 1686.13 250.859C1679.65 255.822 1670.49 258.299 1658.64 258.299C1658.64 254.304 1658.43 250.773 1658 247.708C1657.56 244.652 1656.79 242.118 1655.68 240.116C1654.59 238.123 1653.11 236.604 1651.24 235.561C1649.39 234.498 1647.09 233.966 1644.33 233.966C1640.89 233.966 1637.93 234.83 1635.45 236.548C1632.96 238.275 1630.87 240.495 1629.15 243.229C1627.42 245.943 1626.01 249.018 1624.9 252.453C1623.81 255.87 1622.94 259.324 1622.32 262.816C1621.71 266.309 1621.3 269.64 1621.1 272.8C1620.92 275.941 1620.84 278.646 1620.84 280.924V331.639C1620.84 335.948 1621.35 339.412 1622.39 342.041C1623.45 344.651 1624.88 346.625 1626.68 347.963C1628.5 349.31 1630.68 350.193 1633.21 350.62C1635.74 351.056 1638.43 351.265 1641.3 351.265H1650.75V366.867Z" fill="#545454"/>
<path d="M1764.02 323.174C1764.02 331.583 1765.35 337.884 1768.01 342.079C1770.68 346.283 1774.9 348.38 1780.65 348.38C1784.84 348.38 1788.63 347.507 1792 345.761C1795.39 343.996 1798.3 341.491 1800.73 338.245C1803.18 334.98 1805.06 331.032 1806.35 326.401C1807.64 321.77 1808.28 316.598 1808.28 310.875V288.82L1795.11 289.655C1789.27 289.959 1784.34 290.898 1780.34 292.464C1776.34 294.039 1773.14 296.213 1770.74 298.993C1768.36 301.755 1766.64 305.143 1765.58 309.167C1764.53 313.172 1764.02 317.841 1764.02 323.174ZM1790.1 223.793C1786.35 223.793 1783.21 224.581 1780.69 226.146C1778.15 227.722 1776.13 229.924 1774.61 232.752C1773.09 235.561 1772.01 238.901 1771.39 242.773C1770.78 246.645 1770.48 250.878 1770.48 255.452C1757.28 255.452 1747.38 253.972 1740.75 251.011C1734.12 248.05 1730.81 242.992 1730.81 235.826C1730.81 230.465 1732.4 225.881 1735.59 222.085C1738.78 218.27 1743.11 215.166 1748.61 212.784C1754.09 210.383 1760.5 208.637 1767.82 207.546C1775.13 206.435 1782.94 205.875 1791.24 205.875C1801.54 205.875 1810.53 206.767 1818.23 208.533C1825.92 210.307 1832.31 213.154 1837.4 217.074C1842.51 220.974 1846.36 226.099 1848.94 232.448C1851.52 238.806 1852.81 246.56 1852.81 255.718V330.501C1852.81 334.506 1853.12 337.846 1853.72 340.523C1854.35 343.18 1855.34 345.306 1856.68 346.9C1858.02 348.475 1859.83 349.595 1862.11 350.278C1864.41 350.943 1867.18 351.265 1870.43 351.265H1871.56V366.867H1817.02L1810.87 346.672H1808.28C1805.02 350.601 1801.95 354.018 1799.1 356.922C1796.23 359.835 1793.19 362.255 1789.95 364.172C1786.7 366.07 1783.05 367.456 1778.98 368.348C1774.93 369.259 1770.13 369.714 1764.59 369.714C1758.08 369.714 1752.04 368.765 1746.45 366.867C1740.88 364.969 1736.02 362.037 1731.87 358.06C1727.71 354.094 1724.44 349.13 1722.04 343.18C1719.65 337.21 1718.47 330.159 1718.47 322.036C1718.47 306.092 1723.93 294.305 1734.87 286.656C1745.8 279.016 1762.25 274.869 1784.22 274.205L1808.28 273.332V257.16C1808.28 252.302 1808.09 247.822 1807.71 243.722C1807.34 239.604 1806.51 236.054 1805.25 233.093C1804 230.132 1802.17 227.845 1799.74 226.222C1797.31 224.609 1794.1 223.793 1790.1 223.793Z" fill="#545454"/>
<path d="M2062.6 287.681C2062.6 301.907 2061.28 314.177 2058.65 324.503C2056.04 334.809 2052.21 343.322 2047.15 350.05C2042.08 356.789 2035.8 361.742 2028.29 364.931C2020.79 368.12 2012.17 369.714 2002.43 369.714C1996.82 369.714 1991.71 369.088 1987.14 367.854C1982.55 366.62 1978.41 364.855 1974.72 362.578C1971.05 360.281 1967.79 357.557 1964.97 354.416C1962.16 351.256 1959.7 347.763 1957.6 343.939H1954.91L1946.75 366.867H1891.02V351.265H1893.03C1895.78 351.265 1898.51 351.028 1901.19 350.544C1903.87 350.069 1906.26 349.12 1908.37 347.697C1910.46 346.254 1912.14 344.204 1913.42 341.547C1914.71 338.871 1915.35 335.274 1915.35 330.766V179.113C1915.35 174.918 1914.73 171.549 1913.49 169.015C1912.25 166.491 1910.58 164.498 1908.48 163.055C1906.37 161.613 1903.93 160.664 1901.12 160.208C1898.31 159.734 1895.32 159.487 1892.16 159.487H1891.02V143.999H1959.92V194.145C1959.92 197.211 1959.78 200.788 1959.54 204.888C1959.31 208.988 1959.05 212.85 1958.78 216.466C1958.4 220.775 1958 225.178 1957.6 229.677H1959.61C1963.81 222.417 1969.42 216.684 1976.43 212.48C1983.46 208.286 1992.53 206.179 2003.61 206.179C2013.15 206.179 2021.57 207.792 2028.85 211C2036.16 214.189 2042.33 219.104 2047.34 225.729C2052.35 232.362 2056.15 240.818 2058.73 251.086C2061.31 261.336 2062.6 273.54 2062.6 287.681ZM1989.83 227.779C1984 227.779 1979.18 229.012 1975.37 231.461C1971.54 233.89 1968.48 237.591 1966.18 242.545C1963.9 247.509 1962.28 253.744 1961.32 261.26C1960.38 268.757 1959.92 277.564 1959.92 287.681C1959.92 297.323 1960.38 305.892 1961.32 313.38C1962.28 320.878 1963.9 327.179 1966.18 332.285C1968.48 337.4 1971.59 341.272 1975.52 343.901C1979.44 346.511 1984.31 347.811 1990.13 347.811C1999.78 347.811 2006.74 342.61 2011.05 332.209C2015.35 321.808 2017.5 306.87 2017.5 287.377C2017.5 267.41 2015.35 252.491 2011.05 242.621C2006.74 232.732 1999.67 227.779 1989.83 227.779Z" fill="#545454"/>
<path d="M2106.53 162.068C2106.53 158.348 2107.18 155.15 2108.47 152.464C2109.76 149.788 2111.52 147.605 2113.75 145.935C2116 144.265 2118.62 143.031 2121.64 142.215C2124.65 141.408 2127.92 141 2131.47 141C2134.81 141 2138 141.408 2141.04 142.215C2144.1 143.031 2146.77 144.265 2149.05 145.935C2151.35 147.605 2153.2 149.788 2154.59 152.464C2155.98 155.15 2156.68 158.348 2156.68 162.068C2156.68 165.694 2155.98 168.844 2154.59 171.521C2153.2 174.178 2151.35 176.37 2149.05 178.088C2146.77 179.815 2144.1 181.106 2141.04 181.96C2138 182.823 2134.81 183.25 2131.47 183.25C2127.92 183.25 2124.65 182.823 2121.64 181.96C2118.62 181.106 2116 179.815 2113.75 178.088C2111.52 176.37 2109.76 174.178 2108.47 171.521C2107.18 168.844 2106.53 165.694 2106.53 162.068ZM2089.79 351.265C2091.97 351.265 2094.27 351.056 2096.7 350.62C2099.15 350.193 2101.41 349.31 2103.46 347.963C2105.51 346.625 2107.22 344.717 2108.58 342.231C2109.97 339.754 2110.67 336.413 2110.67 332.209V243.115C2110.67 239.195 2109.97 236.073 2108.58 233.738C2107.22 231.413 2105.48 229.601 2103.38 228.31C2101.28 227.019 2099.02 226.184 2096.59 225.805C2094.16 225.425 2091.89 225.235 2089.79 225.235H2086.34V209.595H2155.24V332.209C2155.24 336.413 2155.92 339.754 2157.29 342.231C2158.67 344.717 2160.4 346.625 2162.45 347.963C2164.5 349.31 2166.76 350.193 2169.24 350.62C2171.75 351.056 2174.05 351.265 2176.15 351.265H2179.57V366.867H2086.34V351.265H2089.79Z" fill="#545454"/>
</svg>
